#!OML:ASF F:\VICON\USERDATA\INSTALL\rory3\rory3.ASF
:FULLY-SPECIFIED
:DEGREES
207
root -1.29597 17.9989 4.35462 0.00487027 36.54 -0.789762
lowerback 13.881 1.43166 2.90686
upperback 3.50088 2.46785 2.16911
thorax -4.0579 1.22722 0.209704
lowerneck -10.9713 -4.62076 -13.0396
upperneck 40.3831 -4.2094 4.66558
head 17.0175 -2.82054 3.80466
rclavicle -1.78906e-014 0
rhumerus -21.221 -2.8293 -79.1144
rradius 33.1125
rwrist 5.93443
rhand -15.7939 7.35275
rfingers 7.12502
rthumb 10.399 -22.3701
lclavicle -1.78906e-014 0
lhumerus -33.5176 1.66861 87.0725
lradius 41.272
lwrist -0.107163
lhand -18.5046 23.3986
lfingers 7.12502
lthumb 7.78335 53.2354
rfemur -6.8041 -5.43849 24.0056
rtibia 26.3841
rfoot -15.2548 -7.75973
rtoes 4.86186
lfemur -18.8572 -4.37344 -11.0381
ltibia 16.1668
lfoot -3.80473 6.56419
ltoes -10.061
208
root -1.23622 17.989 4.40346 0.174121 36.4434 -0.808585
lowerback 13.9841 1.43295 3.03841
upperback 3.40102 2.48994 2.07974
thorax -4.20886 1.23325 0.033868
lowerneck -10.8397 -4.60857 -12.9065
upperneck 40.4063 -4.25907 4.69713
head 16.9963 -2.81782 3.78888
rclavicle -5.34731e-014 0
rhumerus -21.1412 -3.02837 -79.1752
rradius 33.3302
rwrist 6.16391
rhand -15.5107 7.0996
rfingers 7.12502
rthumb 10.6722 -22.6094
lclavicle -5.34731e-014 0
lhumerus -33.6133 1.13185 87.1634
lradius 41.8779
lwrist -0.00435297
lhand -18.5304 24.0119
lfingers 7.12502
lthumb 7.7584 53.8495
rfemur -6.79642 -5.27238 23.9569
rtibia 26.5253
rfoot -15.566 -7.80858
rtoes 4.87631
lfemur -18.8635 -4.98803 -10.7538
ltibia 14.1166
lfoot -3.4467 6.33417
ltoes -9.69458
209
root -1.17191 17.9815 4.45379 0.338176 36.2516 -0.793642
lowerback 13.9818 1.47009 3.10316
upperback 3.39672 2.54471 2.02825
thorax -4.20579 1.25927 -0.0656986
lowerneck -10.869 -4.62292 -12.7866
upperneck 40.4839 -4.29287 4.65537
head 17.0444 -2.82068 3.74539
rclavicle -7.25564e-014 4.77083e-015
rhumerus -20.9086 -3.08556 -79.1484
rradius 33.5302
rwrist 6.46018
rhand -14.85 6.88993
rfingers 7.12502
rthumb 11.3094 -22.7852
lclavicle -7.25564e-014 4.77083e-015
lhumerus -33.5694 0.745186 87.2756
lradius 42.3874
lwrist -0.14414
lhand -18.4237 24.9868
lfingers 7.12502
lthumb 7.86139 54.8206
rfemur -6.76082 -5.17497 23.8535
rtibia 26.6854
rfoot -15.8627 -7.73985
rtoes 4.69746
lfemur -18.7694 -5.88641 -10.4315
ltibia 12.1405
lfoot -3.24171 6.57487
ltoes -9.62806
210
root -1.10543 17.9762 4.50708 0.553893 35.9375 -0.782685
lowerback 13.7555 1.48728 2.992
upperback 3.48511 2.54178 2.09236
thorax -3.99766 1.2627 0.0727719
lowerneck -11.0124 -4.56988 -12.8442
upperneck 40.5061 -4.15582 4.59757
head 17.0773 -2.78215 3.75247
rclavicle 2.5842e-014 2.38542e-015
rhumerus -20.552 -2.82692 -79.1135
rradius 33.7275
rwrist 6.72406
rhand -14.817 6.80819
rfingers 7.12502
rthumb 11.3413 -22.8651
lclavicle 2.5842e-014 2.38542e-015
lhumerus -33.3568 0.704842 87.4833
lradius 42.7454
lwrist 0.00949934
lhand -18.9335 26.2016
lfingers 7.12502
lthumb 7.36934 56.0533
rfemur -6.78772 -5.12874 23.7601
rtibia 26.8235
rfoot -16.0268 -7.64187
rtoes 3.58016
lfemur -18.6899 -7.02136 -10.012
ltibia 10.2977
lfoot -3.35851 7.36064
ltoes -11.1055
211
root -1.04267 17.9652 4.55825 0.711324 35.7259 -0.804334
lowerback 13.674 1.46646 2.91424
upperback 3.53253 2.4999 2.12413
thorax -3.90906 1.24424 0.159879
lowerneck -11.0903 -4.51868 -12.7909
upperneck 40.4906 -4.04001 4.47915
head 17.0677 -2.74288 3.70681
rclavicle 2.78299e-015 -5.56597e-015
rhumerus -20.2328 -2.59442 -79.1977
rradius 33.8771
rwrist 6.61761
rhand -14.9553 6.75829
rfingers 7.12502
rthumb 11.2079 -22.9223
lclavicle 2.78299e-015 -5.56597e-015
lhumerus -33.2645 0.460993 87.6856
lradius 43.1658
lwrist 0.404885
lhand -19.6552 26.6755
lfingers 7.12502
lthumb 6.67267 56.5504
rfemur -6.77597 -5.10678 23.7142
rtibia 26.9408
rfoot -16.1473 -7.6668
rtoes 2.08643
lfemur -18.6265 -6.96406 -9.95578
ltibia 8.62551
lfoot -3.28933 7.03046
ltoes -12.6697
212
root -0.979657 17.9505 4.60954 0.743437 35.6143 -0.832701
lowerback 13.7747 1.40143 2.89463
upperback 3.5711 2.41652 2.14985
thorax -3.92659 1.20353 0.209323
lowerneck -11.1632 -4.45121 -12.825
upperneck 40.553 -3.91376 4.46931
head 17.1062 -2.70029 3.7324
rclavicle -8.11041e-014 2.06736e-014
rhumerus -19.9308 -2.20406 -79.2661
rradius 33.9495
rwrist 6.1688
rhand -14.9054 6.74659
rfingers 7.12502
rthumb 11.256 -22.9314
lclavicle -8.11041e-014 2.06736e-014
lhumerus -33.2667 0.230889 87.8341
lradius 43.6191
lwrist 0.559373
lhand -19.4765 25.8447
lfingers 7.12502
lthumb 6.84519 55.7141
rfemur -6.6181 -5.01711 23.6518
rtibia 27.0697
rfoot -16.3831 -7.74308
rtoes 1.15389
lfemur -18.4417 -7.01989 -9.88639
ltibia 7.06106
lfoot -3.37337 6.91956
ltoes -13.8254
213
root -0.913652 17.9375 4.65784 0.832194 35.4151 -0.863393
lowerback 13.8164 1.36482 2.86338
upperback 3.59061 2.36739 2.19298
thorax -3.9327 1.17963 0.279322
lowerneck -11.1743 -4.37028 -12.8719
upperneck 40.6199 -3.78223 4.48772
head 17.1316 -2.65395 3.77506
rclavicle -3.22031e-014 -3.18055e-015
rhumerus -19.675 -1.88985 -79.2967
rradius 33.9974
rwrist 6.04488
rhand -14.9 6.78483
rfingers 7.12502
rthumb 11.2612 -22.8929
lclavicle -3.22031e-014 -3.18055e-015
lhumerus -33.2288 0.13668 87.9531
lradius 43.9819
lwrist 0.612643
lhand -19.1863 25.1827
lfingers 7.12502
lthumb 7.12534 55.0428
rfemur -6.53629 -4.85459 23.5637
rtibia 27.2203
rfoot -16.6561 -7.70276
rtoes 1.13951
lfemur -18.23 -6.98228 -9.82072
ltibia 5.6039
lfoot -3.55804 6.72055
ltoes -14.235
214
root -0.845172 17.9252 4.7026 1.03559 35.2124 -0.765666
lowerback 13.8155 1.39722 2.80652
upperback 3.60166 2.39769 2.12586
thorax -3.91955 1.19477 0.236205
lowerneck -11.1121 -4.3777 -12.7836
upperneck 40.6678 -3.86207 4.57088
head 17.1496 -2.66453 3.78626
rclavicle -6.16232e-014 -2.62396e-014
rhumerus -19.4978 -2.02369 -79.3883
rradius 34.0577
rwrist 6.18414
rhand -15.0441 6.83176
rfingers 7.12502
rthumb 11.1222 -22.8535
lclavicle -6.16232e-014 -2.62396e-014
lhumerus -33.2676 -0.269728 88.0787
lradius 44.4931
lwrist 0.631667
lhand -19.3572 25.1479
lfingers 7.12502
lthumb 6.96037 55.0134
rfemur -6.52111 -4.70941 23.3491
rtibia 27.3955
rfoot -16.8686 -7.66983
rtoes 1.00215
lfemur -18.0217 -6.94495 -9.88225
ltibia 4.30416
lfoot -3.35952 6.32921
ltoes -14.2018
215
root -0.781047 17.9144 4.74561 1.10685 35.1344 -0.773076
lowerback 13.9703 1.43276 2.88441
upperback 3.59002 2.45841 2.0495
thorax -4.00826 1.22265 0.0977373
lowerneck -10.9851 -4.44646 -12.6533
upperneck 40.6513 -4.05135 4.63968
head 17.1269 -2.71344 3.7617
rclavicle -7.55382e-014 7.95139e-016
rhumerus -19.4546 -2.29805 -79.4576
rradius 34.2035
rwrist 6.19963
rhand -15.2765 7.02733
rfingers 7.12502
rthumb 10.8981 -22.6699
lclavicle -7.55382e-014 7.95139e-016
lhumerus -33.4331 -0.948259 88.2524
lradius 45.1214
lwrist 0.68565
lhand -19.4762 25.1817
lfingers 7.12502
lthumb 6.84543 55.0511
rfemur -6.45057 -4.58745 23.2501
rtibia 27.6183
rfoot -17.1078 -7.74832
rtoes 0.475699
lfemur -17.7539 -7.03391 -9.83979
ltibia 3.13717
lfoot -2.82344 5.9658
ltoes -13.672
216
root -0.719694 17.9016 4.78395 1.07863 35.1154 -0.873197
lowerback 14.2409 1.36908 2.93273
upperback 3.58356 2.39751 2.10951
thorax -4.16373 1.19046 0.135932
lowerneck -10.8975 -4.43409 -12.775
upperneck 40.625 -4.04498 4.72241
head 17.0966 -2.71946 3.82201
rclavicle -2.42517e-014 2.14687e-014
rhumerus -19.3201 -2.18515 -79.4277
rradius 34.3267
rwrist 6.19935
rhand -15.3284 7.18404
rfingers 7.12502
rthumb 10.848 -22.5158
lclavicle -2.42517e-014 2.14687e-014
lhumerus -33.4854 -1.19801 88.4492
lradius 45.5898
lwrist 0.765489
lhand -19.5013 25.3121
lfingers 7.12502
lthumb 6.82124 55.1823
rfemur -6.35906 -4.53131 23.2432
rtibia 27.8753
rfoot -17.3889 -7.90924
rtoes -0.62098
lfemur -17.5679 -7.19406 -9.74356
ltibia 2.28861
lfoot -2.15045 5.68586
ltoes -12.8286
217
root -0.652688 17.8904 4.82266 1.17923 35.0145 -0.93416
lowerback 14.2965 1.27667 2.91529
upperback 3.62011 2.28003 2.20007
thorax -4.1619 1.13348 0.260068
lowerneck -10.9555 -4.35644 -12.9545
upperneck 40.6459 -3.89114 4.77567
head 17.1126 -2.67911 3.9059
rclavicle -6.50026e-014 2.38542e-015
rhumerus -19.0082 -1.99566 -79.4008
rradius 34.3601
rwrist 6.17803
rhand -15.3424 7.13139
rfingers 7.12502
rthumb 10.8345 -22.5691
lclavicle -6.50026e-014 2.38542e-015
lhumerus -33.4093 -1.20007 88.6341
lradius 46.0086
lwrist 0.88662
lhand -19.4107 25.551
lfingers 7.12502
lthumb 6.90871 55.4183
rfemur -6.3831 -4.53737 23.1648
rtibia 28.1173
rfoot -17.6359 -7.89649
rtoes -1.48122
lfemur -17.871 -7.28039 -9.74137
ltibia 2.43841
lfoot -1.73662 5.4208
ltoes -12.2551
